<svg width="1000" height="1000" viewBox="0 0 1000 1000" fill="none" xmlns="http://www.w3.org/2000/svg">
<path d="M0 427.961C51.8078 338.228 166.55 307.483 256.284 359.29L418.761 453.097C366.953 542.831 252.211 573.576 162.477 521.768L0 427.961Z" fill="#BEE9E4"/>
<path d="M427.961 1000C338.228 948.192 307.483 833.45 359.29 743.716L453.097 581.239C542.831 633.047 573.576 747.789 521.768 837.523L427.961 1000Z" fill="#BEE9E4"/>
<path d="M581.239 546.903C633.047 457.169 747.789 426.424 837.523 478.232L1000 572.039C948.192 661.772 833.45 692.518 743.716 640.71L581.239 546.903Z" fill="#BEE9E4"/>
<path d="M572.039 0C661.772 51.8078 692.517 166.55 640.71 256.284L546.903 418.761C457.169 366.953 426.424 252.211 478.232 162.477L572.039 0Z" fill="#BEE9E4"/>
<path d="M904.492 197.385C931.31 297.471 871.915 400.346 771.83 427.163L590.61 475.721C563.792 375.636 623.187 272.761 723.272 245.943L904.492 197.385Z" fill="#BEE9E4"/>
<path d="M524.279 590.61C624.364 563.792 727.239 623.187 754.057 723.272L802.615 904.492C702.529 931.31 599.654 871.915 572.837 771.83L524.279 590.61Z" fill="#BEE9E4"/>
<path d="M95.5077 802.615C68.69 702.529 128.085 599.654 228.17 572.837L409.39 524.279C436.208 624.364 376.813 727.239 276.728 754.057L95.5077 802.615Z" fill="#BEE9E4"/>
<path d="M197.385 95.5077C297.471 68.69 400.346 128.085 427.163 228.17L475.721 409.39C375.636 436.208 272.761 376.813 245.943 276.728L197.385 95.5077Z" fill="#BEE9E4"/>
<path d="M35.682 301.007C108.949 227.739 227.739 227.739 301.007 301.007L433.669 433.669C360.402 506.936 241.612 506.936 168.344 433.669L35.682 301.007Z" fill="#76C4AE"/>
<path d="M301.007 964.318C227.739 891.051 227.739 772.261 301.007 698.993L433.669 566.331C506.936 639.598 506.936 758.388 433.669 831.656L301.007 964.318Z" fill="#76C4AE"/>
<path d="M566.331 566.331C639.599 493.064 758.388 493.064 831.656 566.331L964.318 698.993C891.051 772.261 772.261 772.261 698.993 698.993L566.331 566.331Z" fill="#76C4AE"/>
<path d="M698.993 35.6821C772.261 108.949 772.261 227.739 698.993 301.007L566.331 433.669C493.064 360.402 493.064 241.612 566.331 168.344L698.993 35.6821Z" fill="#76C4AE"/>
<path d="M969.032 312.387C969.032 416.003 885.035 500 781.419 500L593.806 500C593.806 396.384 677.803 312.387 781.419 312.387L969.032 312.387Z" fill="#76C4AE"/>
<path d="M500 593.806C603.616 593.806 687.613 677.804 687.613 781.419V969.032C583.997 969.032 500 885.035 500 781.419V593.806Z" fill="#76C4AE"/>
<path d="M30.9681 687.613C30.9681 583.997 114.965 500 218.581 500L406.194 500C406.194 603.616 322.197 687.613 218.581 687.613L30.9681 687.613Z" fill="#76C4AE"/>
<path d="M312.387 30.9681C416.003 30.9681 500 114.965 500 218.581V406.194C396.384 406.194 312.387 322.197 312.387 218.581V30.9681Z" fill="#76C4AE"/>
</svg>
